<mxfile host="app.diagrams.net" modified="2022-08-29T15:55:31.544Z" agent="5.0 (Windows NT 10.0; Win64; x64) AppleWebKit/537.36 (KHTML, like Gecko) Chrome/104.0.5112.102 Safari/537.36" etag="7kLaZY95_2g_ab-JzIMa" version="20.2.3" type="github" pages="4">
  <diagram id="id5Ea1LoEQPweoLkF-Yk" name="Architecture">
    <mxGraphModel dx="2568" dy="524" grid="1" gridSize="10" guides="1" tooltips="1" connect="1" arrows="1" fold="1" page="1" pageScale="1" pageWidth="850" pageHeight="1100" math="0" shadow="0">
      <root>
        <mxCell id="0" />
        <mxCell id="1" parent="0" />
        <mxCell id="LfJ10_zLa77k5ZNUsWnv-1" value="" style="rounded=0;whiteSpace=wrap;html=1;shadow=0;glass=0;sketch=1;fontFamily=Comic Sans MS;strokeColor=default;" parent="1" vertex="1">
          <mxGeometry x="-500" y="470" width="140" height="210" as="geometry" />
        </mxCell>
        <mxCell id="LfJ10_zLa77k5ZNUsWnv-3" value="&lt;h4&gt;Data&lt;br&gt;Plane&lt;/h4&gt;" style="rounded=1;whiteSpace=wrap;html=1;shadow=0;glass=0;sketch=1;fontFamily=Comic Sans MS;strokeColor=#d79b00;fillColor=#ffe6cc;fillStyle=cross-hatch;" parent="1" vertex="1">
          <mxGeometry x="-470" y="590" width="80" height="60" as="geometry" />
        </mxCell>
        <mxCell id="LfJ10_zLa77k5ZNUsWnv-5" value="&lt;h4&gt;Control&lt;br&gt;Plane&lt;/h4&gt;" style="rounded=1;whiteSpace=wrap;html=1;shadow=0;glass=0;sketch=1;fontFamily=Comic Sans MS;strokeColor=#6c8ebf;fillColor=#dae8fc;fillStyle=cross-hatch;" parent="1" vertex="1">
          <mxGeometry x="-470" y="500" width="80" height="60" as="geometry" />
        </mxCell>
        <mxCell id="o9X68NtyGROhD8dl_HlU-4" value="" style="group" parent="1" vertex="1" connectable="0">
          <mxGeometry x="-730" y="300" width="660" height="124" as="geometry" />
        </mxCell>
        <mxCell id="o9X68NtyGROhD8dl_HlU-2" value="&lt;font style=&quot;font-size: 42px;&quot; face=&quot;Comic Sans MS&quot;&gt;High Level Architecture&lt;/font&gt;" style="text;html=1;align=center;verticalAlign=middle;resizable=0;points=[];autosize=1;strokeColor=none;fillColor=none;" parent="o9X68NtyGROhD8dl_HlU-4" vertex="1">
          <mxGeometry x="160" y="40" width="500" height="60" as="geometry" />
        </mxCell>
        <mxCell id="o9X68NtyGROhD8dl_HlU-3" value="" style="sketch=0;aspect=fixed;html=1;points=[];align=center;image;fontSize=12;image=img/lib/mscae/Kubernetes.svg;fillStyle=solid;fontFamily=Comic Sans MS;" parent="o9X68NtyGROhD8dl_HlU-4" vertex="1">
          <mxGeometry width="129.17" height="124" as="geometry" />
        </mxCell>
        <mxCell id="S7L3OmrAKusWC0OVX9Ii-2" style="edgeStyle=orthogonalEdgeStyle;curved=1;rounded=0;sketch=1;orthogonalLoop=1;jettySize=auto;html=1;fontFamily=Comic Sans MS;fontSize=42;startArrow=classic;startFill=1;endArrow=none;endFill=0;" parent="1" source="j1eKdA8nGr3mRw921-bI-1" target="LfJ10_zLa77k5ZNUsWnv-5" edge="1">
          <mxGeometry relative="1" as="geometry" />
        </mxCell>
        <mxCell id="j1eKdA8nGr3mRw921-bI-1" value="&lt;div style=&quot;text-align: left;&quot;&gt;Control plane is the brain of Kubernetes, it is responsible&lt;br&gt;for taking global decisions about the cluster&lt;/div&gt;" style="text;html=1;align=center;verticalAlign=middle;resizable=0;points=[];autosize=1;strokeColor=default;fillColor=none;fontFamily=Comic Sans MS;dashed=1;" parent="1" vertex="1">
          <mxGeometry x="-900" y="480" width="340" height="40" as="geometry" />
        </mxCell>
        <mxCell id="S7L3OmrAKusWC0OVX9Ii-3" style="edgeStyle=orthogonalEdgeStyle;curved=1;rounded=0;sketch=1;orthogonalLoop=1;jettySize=auto;html=1;entryX=1;entryY=0.5;entryDx=0;entryDy=0;fontFamily=Comic Sans MS;fontSize=42;startArrow=classic;startFill=1;endArrow=none;endFill=0;" parent="1" source="S7L3OmrAKusWC0OVX9Ii-1" target="LfJ10_zLa77k5ZNUsWnv-3" edge="1">
          <mxGeometry relative="1" as="geometry" />
        </mxCell>
        <mxCell id="S7L3OmrAKusWC0OVX9Ii-1" value="&lt;div style=&quot;text-align: left;&quot;&gt;If control-plane is the brain of Kubernetes then data-plane is the body.&lt;br&gt;&lt;br&gt;It carries out the commands given by control-plane &lt;br&gt;such as running pods(applications), establishing network etc...&lt;/div&gt;" style="text;html=1;align=center;verticalAlign=middle;resizable=0;points=[];autosize=1;strokeColor=default;fillColor=none;fontFamily=Comic Sans MS;dashed=1;" parent="1" vertex="1">
          <mxGeometry x="-280" y="560" width="420" height="70" as="geometry" />
        </mxCell>
        <mxCell id="gFrTbVO_Szl1pqFZ02X_-1" value="&lt;h1&gt;1&lt;/h1&gt;" style="whiteSpace=wrap;html=1;fontFamily=Comic Sans MS;fontSize=10;strokeColor=default;fillColor=#FF0000;fontColor=#FFFFFF;" parent="1" vertex="1">
          <mxGeometry x="-900" y="450" width="31" height="30" as="geometry" />
        </mxCell>
        <mxCell id="gFrTbVO_Szl1pqFZ02X_-3" value="&lt;h1&gt;2&lt;/h1&gt;" style="whiteSpace=wrap;html=1;fontFamily=Comic Sans MS;fontSize=10;strokeColor=default;fillColor=#FF0000;fontColor=#FFFFFF;" parent="1" vertex="1">
          <mxGeometry x="-280" y="530" width="31" height="30" as="geometry" />
        </mxCell>
      </root>
    </mxGraphModel>
  </diagram>
  <diagram id="oriEBHdw_vApfA_2F07q" name="Master Node">
    <mxGraphModel dx="2297" dy="718" grid="1" gridSize="10" guides="1" tooltips="1" connect="1" arrows="1" fold="1" page="1" pageScale="1" pageWidth="850" pageHeight="1100" math="0" shadow="0">
      <root>
        <mxCell id="0" />
        <mxCell id="1" parent="0" />
        <mxCell id="W_FdykJnlnCan0XxQBy2-41" value="&lt;div style=&quot;text-align: left;&quot;&gt;&lt;span style=&quot;background-color: initial;&quot;&gt;A program that exposes the kubernetes API for consumption &amp;amp;&amp;nbsp;&lt;/span&gt;this&lt;br&gt;component is also responsible for authentication &amp;amp; authorization&amp;nbsp; of&lt;br&gt;the entire system&lt;span style=&quot;background-color: initial;&quot;&gt;&lt;br&gt;&lt;/span&gt;&lt;/div&gt;" style="text;html=1;align=center;verticalAlign=middle;resizable=0;points=[];autosize=1;strokeColor=default;fillColor=none;fontFamily=Comic Sans MS;dashed=1;" parent="1" vertex="1">
          <mxGeometry x="-720" y="470" width="400" height="60" as="geometry" />
        </mxCell>
        <mxCell id="W_FdykJnlnCan0XxQBy2-45" value="&lt;div style=&quot;text-align: left;&quot;&gt;&lt;span style=&quot;background-color: initial;&quot;&gt;A program that takes actions on Kubernetes kinds submitted to the&lt;br&gt;api-server&lt;/span&gt;&lt;/div&gt;&lt;div style=&quot;text-align: left;&quot;&gt;&lt;ul&gt;&lt;li&gt;Every kubernetes kind &lt;b&gt;(deployment, service etc... )&amp;nbsp;&lt;/b&gt;needs &lt;br&gt;to be understood &amp;amp; appropriate action has to be taken&lt;br&gt;my some entity. That entity is called controller&lt;/li&gt;&lt;/ul&gt;&lt;/div&gt;" style="text;html=1;align=center;verticalAlign=middle;resizable=0;points=[];autosize=1;strokeColor=default;fillColor=none;fontFamily=Comic Sans MS;dashed=1;" parent="1" vertex="1">
          <mxGeometry x="-600" y="770" width="400" height="110" as="geometry" />
        </mxCell>
        <mxCell id="W_FdykJnlnCan0XxQBy2-47" value="&lt;div style=&quot;text-align: left;&quot;&gt;&lt;span style=&quot;background-color: initial;&quot;&gt;An optional program used by cloud vendors&amp;nbsp;&lt;b&gt;(AWS, GCP etc...)&lt;/b&gt;&amp;nbsp;to extend/&lt;br&gt;do-deep integration between Kubernetes &amp;amp; cloud vendor specific APIs.&lt;/span&gt;&lt;/div&gt;&lt;div style=&quot;text-align: left;&quot;&gt;&lt;ul&gt;&lt;li&gt;&lt;b&gt;Example:&amp;nbsp;&lt;/b&gt;Creating a &lt;b&gt;service kind &lt;/b&gt;in kubernetes running on any cloud&lt;br&gt;vendor provisions a load balancer specific to that cloud vendor&lt;/li&gt;&lt;/ul&gt;&lt;/div&gt;" style="text;html=1;align=center;verticalAlign=middle;resizable=0;points=[];autosize=1;strokeColor=default;fillColor=none;fontFamily=Comic Sans MS;dashed=1;" parent="1" vertex="1">
          <mxGeometry y="770" width="450" height="100" as="geometry" />
        </mxCell>
        <mxCell id="W_FdykJnlnCan0XxQBy2-48" value="&lt;div style=&quot;text-align: left;&quot;&gt;&lt;span style=&quot;background-color: initial;&quot;&gt;A distributed, consistent &amp;amp; highly available key value store used for storing cluster&lt;br&gt;data&lt;/span&gt;&lt;/div&gt;" style="text;html=1;align=center;verticalAlign=middle;resizable=0;points=[];autosize=1;strokeColor=default;fillColor=none;fontFamily=Comic Sans MS;dashed=1;" parent="1" vertex="1">
          <mxGeometry x="-590" y="320" width="490" height="40" as="geometry" />
        </mxCell>
        <mxCell id="W_FdykJnlnCan0XxQBy2-49" value="&lt;div style=&quot;text-align: left;&quot;&gt;A program that watches for newly created Pods with no assigned&lt;br&gt;worker node, and selects a node for them to run on.&lt;/div&gt;" style="text;html=1;align=center;verticalAlign=middle;resizable=0;points=[];autosize=1;strokeColor=default;fillColor=none;fontFamily=Comic Sans MS;dashed=1;" parent="1" vertex="1">
          <mxGeometry x="20" y="320" width="390" height="40" as="geometry" />
        </mxCell>
        <mxCell id="W_FdykJnlnCan0XxQBy2-51" value="" style="rounded=0;whiteSpace=wrap;html=1;shadow=0;glass=0;sketch=1;fontFamily=Comic Sans MS;strokeColor=default;" parent="1" vertex="1">
          <mxGeometry x="-240" y="420" width="290" height="280" as="geometry" />
        </mxCell>
        <mxCell id="W_FdykJnlnCan0XxQBy2-52" value="&lt;h2&gt;Control Plane / Master Node&lt;/h2&gt;" style="text;html=1;align=center;verticalAlign=middle;resizable=0;points=[];autosize=1;strokeColor=none;fillColor=none;fontFamily=Comic Sans MS;" parent="1" vertex="1">
          <mxGeometry x="-235" y="700" width="280" height="60" as="geometry" />
        </mxCell>
        <mxCell id="W_FdykJnlnCan0XxQBy2-57" style="edgeStyle=orthogonalEdgeStyle;curved=1;sketch=1;orthogonalLoop=1;jettySize=auto;html=1;shadow=0;labelBorderColor=none;fontFamily=Comic Sans MS;" parent="1" source="W_FdykJnlnCan0XxQBy2-34" target="W_FdykJnlnCan0XxQBy2-41" edge="1">
          <mxGeometry relative="1" as="geometry" />
        </mxCell>
        <mxCell id="W_FdykJnlnCan0XxQBy2-34" value="&lt;h4&gt;api-server&lt;/h4&gt;" style="rounded=1;whiteSpace=wrap;html=1;shadow=0;glass=0;sketch=1;fontFamily=Comic Sans MS;strokeColor=#b85450;fillColor=#f8cecc;fillStyle=cross-hatch;" parent="1" vertex="1">
          <mxGeometry x="-135" y="530" width="80" height="60" as="geometry" />
        </mxCell>
        <mxCell id="W_FdykJnlnCan0XxQBy2-56" style="edgeStyle=orthogonalEdgeStyle;curved=1;sketch=1;orthogonalLoop=1;jettySize=auto;html=1;shadow=0;labelBorderColor=none;fontFamily=Comic Sans MS;" parent="1" source="W_FdykJnlnCan0XxQBy2-42" target="W_FdykJnlnCan0XxQBy2-49" edge="1">
          <mxGeometry relative="1" as="geometry" />
        </mxCell>
        <mxCell id="W_FdykJnlnCan0XxQBy2-42" value="&lt;h4&gt;scheduler&lt;/h4&gt;" style="rounded=1;whiteSpace=wrap;html=1;shadow=0;glass=0;sketch=1;fontFamily=Comic Sans MS;strokeColor=#82b366;fillColor=#d5e8d4;fillStyle=cross-hatch;" parent="1" vertex="1">
          <mxGeometry x="-50" y="440" width="80" height="60" as="geometry" />
        </mxCell>
        <mxCell id="W_FdykJnlnCan0XxQBy2-53" style="edgeStyle=orthogonalEdgeStyle;curved=1;sketch=1;orthogonalLoop=1;jettySize=auto;html=1;entryX=0.429;entryY=-0.005;entryDx=0;entryDy=0;entryPerimeter=0;shadow=0;labelBorderColor=none;fontFamily=Comic Sans MS;" parent="1" source="W_FdykJnlnCan0XxQBy2-43" target="W_FdykJnlnCan0XxQBy2-45" edge="1">
          <mxGeometry relative="1" as="geometry" />
        </mxCell>
        <mxCell id="W_FdykJnlnCan0XxQBy2-43" value="&lt;h4&gt;controller&lt;br&gt;manager&lt;/h4&gt;" style="rounded=1;whiteSpace=wrap;html=1;shadow=0;glass=0;sketch=1;fontFamily=Comic Sans MS;strokeColor=#9673a6;fillColor=#e1d5e7;fillStyle=cross-hatch;" parent="1" vertex="1">
          <mxGeometry x="-220" y="620" width="80" height="60" as="geometry" />
        </mxCell>
        <mxCell id="W_FdykJnlnCan0XxQBy2-55" style="edgeStyle=orthogonalEdgeStyle;curved=1;sketch=1;orthogonalLoop=1;jettySize=auto;html=1;shadow=0;labelBorderColor=none;fontFamily=Comic Sans MS;" parent="1" source="W_FdykJnlnCan0XxQBy2-44" target="W_FdykJnlnCan0XxQBy2-48" edge="1">
          <mxGeometry relative="1" as="geometry" />
        </mxCell>
        <mxCell id="W_FdykJnlnCan0XxQBy2-44" value="&lt;h4&gt;ETCD&lt;/h4&gt;" style="rounded=1;whiteSpace=wrap;html=1;shadow=0;glass=0;sketch=1;fontFamily=Comic Sans MS;strokeColor=#6c8ebf;fillColor=#dae8fc;fillStyle=cross-hatch;" parent="1" vertex="1">
          <mxGeometry x="-220" y="440" width="80" height="60" as="geometry" />
        </mxCell>
        <mxCell id="W_FdykJnlnCan0XxQBy2-54" style="edgeStyle=orthogonalEdgeStyle;curved=1;sketch=1;orthogonalLoop=1;jettySize=auto;html=1;shadow=0;labelBorderColor=none;fontFamily=Comic Sans MS;" parent="1" source="W_FdykJnlnCan0XxQBy2-46" target="W_FdykJnlnCan0XxQBy2-47" edge="1">
          <mxGeometry relative="1" as="geometry" />
        </mxCell>
        <mxCell id="W_FdykJnlnCan0XxQBy2-46" value="&lt;h4&gt;cloud&lt;br&gt;controller&lt;br&gt;manager&lt;/h4&gt;" style="rounded=1;whiteSpace=wrap;html=1;shadow=0;glass=0;sketch=1;fontFamily=Comic Sans MS;fillStyle=cross-hatch;" parent="1" vertex="1">
          <mxGeometry x="-50" y="620" width="80" height="60" as="geometry" />
        </mxCell>
        <mxCell id="VHrIqmcP58qczRhMQTmC-1" value="" style="group" vertex="1" connectable="0" parent="1">
          <mxGeometry x="-700" y="130" width="1214.17" height="124" as="geometry" />
        </mxCell>
        <mxCell id="VHrIqmcP58qczRhMQTmC-2" value="&lt;font style=&quot;font-size: 42px;&quot; face=&quot;Comic Sans MS&quot;&gt;What are the different components of control plane?&lt;/font&gt;" style="text;html=1;align=center;verticalAlign=middle;resizable=0;points=[];autosize=1;strokeColor=none;fillColor=none;" vertex="1" parent="VHrIqmcP58qczRhMQTmC-1">
          <mxGeometry x="134.16999999999996" y="40" width="1070" height="60" as="geometry" />
        </mxCell>
        <mxCell id="VHrIqmcP58qczRhMQTmC-3" value="" style="sketch=0;aspect=fixed;html=1;points=[];align=center;image;fontSize=12;image=img/lib/mscae/Kubernetes.svg;fillStyle=solid;fontFamily=Comic Sans MS;" vertex="1" parent="VHrIqmcP58qczRhMQTmC-1">
          <mxGeometry width="129.17" height="124" as="geometry" />
        </mxCell>
        <mxCell id="ybGB5hmpVJGxXjdIKBWl-1" value="&lt;h1&gt;1&lt;/h1&gt;" style="whiteSpace=wrap;html=1;fontFamily=Comic Sans MS;fontSize=10;strokeColor=default;fillColor=#FF0000;fontColor=#FFFFFF;" vertex="1" parent="1">
          <mxGeometry x="-751" y="470" width="31" height="30" as="geometry" />
        </mxCell>
        <mxCell id="ybGB5hmpVJGxXjdIKBWl-2" value="&lt;h1&gt;2&lt;/h1&gt;" style="whiteSpace=wrap;html=1;fontFamily=Comic Sans MS;fontSize=10;strokeColor=default;fillColor=#FF0000;fontColor=#FFFFFF;" vertex="1" parent="1">
          <mxGeometry x="-621" y="320" width="31" height="30" as="geometry" />
        </mxCell>
        <mxCell id="a5Sd1ZbV5DHzqV5_oqJX-1" value="&lt;h1&gt;3&lt;/h1&gt;" style="whiteSpace=wrap;html=1;fontFamily=Comic Sans MS;fontSize=10;strokeColor=default;fillColor=#FF0000;fontColor=#FFFFFF;" vertex="1" parent="1">
          <mxGeometry x="-11" y="320" width="31" height="30" as="geometry" />
        </mxCell>
        <mxCell id="a5Sd1ZbV5DHzqV5_oqJX-2" value="&lt;h1&gt;4&lt;/h1&gt;" style="whiteSpace=wrap;html=1;fontFamily=Comic Sans MS;fontSize=10;strokeColor=default;fillColor=#FF0000;fontColor=#FFFFFF;" vertex="1" parent="1">
          <mxGeometry x="-631" y="770" width="31" height="30" as="geometry" />
        </mxCell>
        <mxCell id="a5Sd1ZbV5DHzqV5_oqJX-3" value="&lt;h1&gt;5&lt;/h1&gt;" style="whiteSpace=wrap;html=1;fontFamily=Comic Sans MS;fontSize=10;strokeColor=default;fillColor=#FF0000;fontColor=#FFFFFF;" vertex="1" parent="1">
          <mxGeometry x="-31" y="770" width="31" height="30" as="geometry" />
        </mxCell>
      </root>
    </mxGraphModel>
  </diagram>
  <diagram id="6MgZ5QTb-qDqdnGJXHVe" name="Worker Node">
    <mxGraphModel dx="1578" dy="784" grid="1" gridSize="10" guides="1" tooltips="1" connect="1" arrows="1" fold="1" page="1" pageScale="1" pageWidth="850" pageHeight="1100" math="0" shadow="0">
      <root>
        <mxCell id="0" />
        <mxCell id="1" parent="0" />
        <mxCell id="jJRrVX9wvgxoNWmM7mUK-1" value="" style="rounded=0;whiteSpace=wrap;html=1;shadow=0;glass=0;sketch=1;fontFamily=Comic Sans MS;strokeColor=default;" vertex="1" parent="1">
          <mxGeometry x="1130" y="375" width="280" height="470" as="geometry" />
        </mxCell>
        <mxCell id="jJRrVX9wvgxoNWmM7mUK-2" style="edgeStyle=orthogonalEdgeStyle;curved=1;sketch=1;orthogonalLoop=1;jettySize=auto;html=1;shadow=0;labelBorderColor=none;fontFamily=Comic Sans MS;" edge="1" parent="1" source="jJRrVX9wvgxoNWmM7mUK-3" target="jJRrVX9wvgxoNWmM7mUK-7">
          <mxGeometry relative="1" as="geometry" />
        </mxCell>
        <mxCell id="jJRrVX9wvgxoNWmM7mUK-3" value="&lt;h4&gt;kubelet&lt;/h4&gt;" style="rounded=1;whiteSpace=wrap;html=1;shadow=0;glass=0;sketch=1;fontFamily=Comic Sans MS;strokeColor=#d79b00;fillColor=#ffe6cc;fillStyle=cross-hatch;" vertex="1" parent="1">
          <mxGeometry x="1175" y="395" width="80" height="60" as="geometry" />
        </mxCell>
        <mxCell id="jJRrVX9wvgxoNWmM7mUK-4" style="edgeStyle=orthogonalEdgeStyle;curved=1;sketch=1;orthogonalLoop=1;jettySize=auto;html=1;shadow=0;labelBorderColor=none;fontFamily=Comic Sans MS;" edge="1" parent="1" source="jJRrVX9wvgxoNWmM7mUK-5" target="jJRrVX9wvgxoNWmM7mUK-9">
          <mxGeometry relative="1" as="geometry" />
        </mxCell>
        <mxCell id="jJRrVX9wvgxoNWmM7mUK-5" value="&lt;h4&gt;kube-proxy&lt;/h4&gt;" style="rounded=1;whiteSpace=wrap;html=1;shadow=0;glass=0;sketch=1;fontFamily=Comic Sans MS;strokeColor=#6c8ebf;fillColor=#dae8fc;fillStyle=cross-hatch;" vertex="1" parent="1">
          <mxGeometry x="1285" y="395" width="80" height="60" as="geometry" />
        </mxCell>
        <mxCell id="jJRrVX9wvgxoNWmM7mUK-6" value="&lt;h2&gt;Data Plane / Worker Node&lt;/h2&gt;" style="text;html=1;align=center;verticalAlign=middle;resizable=0;points=[];autosize=1;strokeColor=none;fillColor=none;fontFamily=Comic Sans MS;" vertex="1" parent="1">
          <mxGeometry x="1140" y="845" width="260" height="60" as="geometry" />
        </mxCell>
        <mxCell id="jJRrVX9wvgxoNWmM7mUK-7" value="&lt;div style=&quot;text-align: left;&quot;&gt;&lt;span style=&quot;background-color: initial;&quot;&gt;A program that does the following&lt;/span&gt;&lt;/div&gt;&lt;div style=&quot;text-align: left;&quot;&gt;&lt;ul&gt;&lt;li&gt;Registers the worker node to api-server&lt;br&gt;&lt;br&gt;&lt;/li&gt;&lt;li&gt;Takes the pod-spec from api-server &amp;amp; ensures that &lt;br&gt;the containers described in the pod-spec are healthy &amp;amp; running&lt;/li&gt;&lt;/ul&gt;&lt;/div&gt;" style="text;html=1;align=center;verticalAlign=middle;resizable=0;points=[];autosize=1;strokeColor=default;fillColor=none;fontFamily=Comic Sans MS;dashed=1;" vertex="1" parent="1">
          <mxGeometry x="790" y="215" width="420" height="110" as="geometry" />
        </mxCell>
        <mxCell id="jJRrVX9wvgxoNWmM7mUK-8" value="&lt;div style=&quot;text-align: left;&quot;&gt;&lt;span style=&quot;background-color: initial;&quot;&gt;A program that is responsible for running containers &amp;amp; providing&amp;nbsp;&lt;br&gt;supplementary actions like (exec, logs, status etc...)&lt;/span&gt;&lt;/div&gt;&lt;div style=&quot;text-align: left;&quot;&gt;&lt;ul&gt;&lt;li&gt;&lt;b&gt;Kubelet&lt;/b&gt; talks to &lt;b&gt;Containerd&lt;/b&gt; to manage containers on the worker&lt;br&gt;node&lt;br&gt;&lt;br&gt;&lt;/li&gt;&lt;li&gt;Technically, containerd is an higher level container runtime that&lt;br&gt;implements the CRI spec specified by Kubernetes&lt;/li&gt;&lt;/ul&gt;&lt;/div&gt;" style="text;html=1;align=center;verticalAlign=middle;resizable=0;points=[];autosize=1;strokeColor=default;fillColor=none;fontFamily=Comic Sans MS;dashed=1;" vertex="1" parent="1">
          <mxGeometry x="630" y="415" width="420" height="140" as="geometry" />
        </mxCell>
        <mxCell id="jJRrVX9wvgxoNWmM7mUK-9" value="&lt;div style=&quot;text-align: left;&quot;&gt;&lt;span style=&quot;background-color: initial;&quot;&gt;A program that works in different modes to implement the &lt;b&gt;services&lt;/b&gt;&lt;br&gt;concept of Kuberentes&lt;/span&gt;&lt;/div&gt;&lt;div style=&quot;text-align: left;&quot;&gt;&lt;ul&gt;&lt;li&gt;Mode 1: Iptables, on the basis of service spec it modify &lt;br&gt;the host iptables.&lt;br&gt;&lt;/li&gt;&lt;li&gt;Mode 2: Ipvs, used when ip-tables are not supported on sytem&lt;/li&gt;&lt;/ul&gt;&lt;/div&gt;" style="text;html=1;align=center;verticalAlign=middle;resizable=0;points=[];autosize=1;strokeColor=default;fillColor=none;fontFamily=Comic Sans MS;dashed=1;" vertex="1" parent="1">
          <mxGeometry x="1290" y="215" width="410" height="110" as="geometry" />
        </mxCell>
        <mxCell id="jJRrVX9wvgxoNWmM7mUK-10" style="edgeStyle=orthogonalEdgeStyle;curved=1;rounded=0;sketch=1;orthogonalLoop=1;jettySize=auto;html=1;entryX=1;entryY=0.5;entryDx=0;entryDy=0;startArrow=classic;startFill=1;endArrow=none;endFill=0;" edge="1" parent="1" source="jJRrVX9wvgxoNWmM7mUK-11" target="jJRrVX9wvgxoNWmM7mUK-15">
          <mxGeometry relative="1" as="geometry" />
        </mxCell>
        <mxCell id="jJRrVX9wvgxoNWmM7mUK-11" value="&lt;div style=&quot;text-align: left;&quot;&gt;&lt;span style=&quot;background-color: initial;&quot;&gt;A program that actually creates &amp;amp; runs containers on the host&lt;/span&gt;&lt;/div&gt;&lt;div style=&quot;text-align: left;&quot;&gt;&lt;ul&gt;&lt;li&gt;&lt;b&gt;Containerd&lt;/b&gt;&amp;nbsp;talks to &lt;b&gt;runc&lt;/b&gt; to actually run containers on the worker&lt;br&gt;node&lt;br&gt;&lt;br&gt;&lt;/li&gt;&lt;li&gt;Technically, runc is an low level container runtime that&lt;br&gt;implements the OCI (open container initiative) spec&lt;br&gt;&lt;br&gt;&lt;/li&gt;&lt;li&gt;So the flow of the container creation is like this&lt;br&gt;&lt;b&gt;api-server -&amp;gt; kubelet -&amp;gt; containerd -&amp;gt; runc&lt;/b&gt;&lt;/li&gt;&lt;/ul&gt;&lt;/div&gt;" style="text;html=1;align=center;verticalAlign=middle;resizable=0;points=[];autosize=1;strokeColor=default;fillColor=none;fontFamily=Comic Sans MS;dashed=1;" vertex="1" parent="1">
          <mxGeometry x="1490" y="630" width="430" height="170" as="geometry" />
        </mxCell>
        <mxCell id="jJRrVX9wvgxoNWmM7mUK-12" value="&lt;div style=&quot;text-align: left;&quot;&gt;&lt;span style=&quot;background-color: initial;&quot;&gt;A program that takes care of networking between containers&lt;br&gt;on the host&lt;/span&gt;&lt;/div&gt;&lt;div style=&quot;text-align: left;&quot;&gt;&lt;ul&gt;&lt;li&gt;Technically, &lt;b&gt;cni-plugin &lt;/b&gt;implements the CNI&lt;br&gt;(container network interface) standard to be compatible&lt;br&gt;with different container runtimes&lt;/li&gt;&lt;br&gt;&lt;/ul&gt;&lt;/div&gt;" style="text;html=1;align=center;verticalAlign=middle;resizable=0;points=[];autosize=1;strokeColor=default;fillColor=none;fontFamily=Comic Sans MS;dashed=1;" vertex="1" parent="1">
          <mxGeometry x="670" y="655" width="380" height="120" as="geometry" />
        </mxCell>
        <mxCell id="jJRrVX9wvgxoNWmM7mUK-13" value="" style="rounded=0;whiteSpace=wrap;html=1;shadow=0;glass=0;sketch=1;fontFamily=Comic Sans MS;strokeColor=#6c8ebf;fillColor=#dae8fc;fillStyle=solid;" vertex="1" parent="1">
          <mxGeometry x="1150" y="505" width="240" height="300" as="geometry" />
        </mxCell>
        <mxCell id="jJRrVX9wvgxoNWmM7mUK-14" value="&lt;h4&gt;coredns&lt;/h4&gt;" style="rounded=1;whiteSpace=wrap;html=1;shadow=0;glass=0;sketch=1;fontFamily=Comic Sans MS;strokeColor=#36393d;fillColor=#ffff88;fillStyle=cross-hatch;" vertex="1" parent="1">
          <mxGeometry x="1285" y="525" width="80" height="60" as="geometry" />
        </mxCell>
        <mxCell id="jJRrVX9wvgxoNWmM7mUK-15" value="&lt;h4&gt;runc&lt;/h4&gt;" style="rounded=1;whiteSpace=wrap;html=1;shadow=0;glass=0;sketch=1;fontFamily=Comic Sans MS;fillStyle=cross-hatch;" vertex="1" parent="1">
          <mxGeometry x="1285" y="625" width="80" height="60" as="geometry" />
        </mxCell>
        <mxCell id="jJRrVX9wvgxoNWmM7mUK-16" value="&lt;h4&gt;crictl&lt;/h4&gt;" style="rounded=1;whiteSpace=wrap;html=1;shadow=0;glass=0;sketch=1;fontFamily=Comic Sans MS;strokeColor=#d79b00;fillColor=#ffe6cc;fillStyle=cross-hatch;" vertex="1" parent="1">
          <mxGeometry x="1285" y="725" width="80" height="60" as="geometry" />
        </mxCell>
        <mxCell id="jJRrVX9wvgxoNWmM7mUK-17" value="&lt;h4&gt;containerd&lt;/h4&gt;" style="rounded=1;whiteSpace=wrap;html=1;shadow=0;glass=0;sketch=1;fontFamily=Comic Sans MS;strokeColor=#9673a6;fillColor=#e1d5e7;fillStyle=cross-hatch;" vertex="1" parent="1">
          <mxGeometry x="1175" y="525" width="80" height="60" as="geometry" />
        </mxCell>
        <mxCell id="jJRrVX9wvgxoNWmM7mUK-18" value="&lt;h4&gt;cni-plugin&lt;/h4&gt;" style="rounded=1;whiteSpace=wrap;html=1;shadow=0;glass=0;sketch=1;fontFamily=Comic Sans MS;fillStyle=cross-hatch;fillColor=#cdeb8b;strokeColor=#36393d;" vertex="1" parent="1">
          <mxGeometry x="1175" y="625" width="80" height="60" as="geometry" />
        </mxCell>
        <mxCell id="jJRrVX9wvgxoNWmM7mUK-19" value="&lt;h4&gt;- socat&lt;br&gt;- conntrack&lt;br&gt;- ipset&lt;br&gt;- kubectl&lt;/h4&gt;" style="rounded=1;whiteSpace=wrap;html=1;shadow=0;glass=0;sketch=1;fontFamily=Comic Sans MS;strokeColor=#ae4132;fillColor=#fad9d5;fillStyle=cross-hatch;align=left;" vertex="1" parent="1">
          <mxGeometry x="1175" y="725" width="80" height="60" as="geometry" />
        </mxCell>
        <mxCell id="jJRrVX9wvgxoNWmM7mUK-20" value="&lt;h3&gt;Core Components&lt;/h3&gt;" style="text;html=1;align=center;verticalAlign=middle;resizable=0;points=[];autosize=1;strokeColor=none;fillColor=none;fontFamily=Comic Sans MS;" vertex="1" parent="1">
          <mxGeometry x="1200" y="445" width="140" height="60" as="geometry" />
        </mxCell>
        <mxCell id="jJRrVX9wvgxoNWmM7mUK-21" value="&lt;h3&gt;Pluggable Dependencies&lt;/h3&gt;" style="text;html=1;align=center;verticalAlign=middle;resizable=0;points=[];autosize=1;strokeColor=none;fillColor=none;fontFamily=Comic Sans MS;" vertex="1" parent="1">
          <mxGeometry x="1180" y="795" width="180" height="60" as="geometry" />
        </mxCell>
        <mxCell id="jJRrVX9wvgxoNWmM7mUK-22" style="edgeStyle=orthogonalEdgeStyle;curved=1;sketch=1;orthogonalLoop=1;jettySize=auto;html=1;shadow=0;labelBorderColor=none;fontFamily=Comic Sans MS;exitX=0;exitY=0.5;exitDx=0;exitDy=0;" edge="1" parent="1" source="jJRrVX9wvgxoNWmM7mUK-18" target="jJRrVX9wvgxoNWmM7mUK-12">
          <mxGeometry relative="1" as="geometry">
            <mxPoint x="1500" y="565" as="sourcePoint" />
            <mxPoint x="1665" y="495" as="targetPoint" />
          </mxGeometry>
        </mxCell>
        <mxCell id="jJRrVX9wvgxoNWmM7mUK-23" style="edgeStyle=orthogonalEdgeStyle;rounded=0;orthogonalLoop=1;jettySize=auto;html=1;entryX=0;entryY=0.5;entryDx=0;entryDy=0;startArrow=classic;startFill=1;endArrow=none;endFill=0;sketch=1;curved=1;" edge="1" parent="1" source="jJRrVX9wvgxoNWmM7mUK-8" target="jJRrVX9wvgxoNWmM7mUK-17">
          <mxGeometry relative="1" as="geometry" />
        </mxCell>
        <mxCell id="jJRrVX9wvgxoNWmM7mUK-24" style="edgeStyle=orthogonalEdgeStyle;curved=1;rounded=0;sketch=1;orthogonalLoop=1;jettySize=auto;html=1;entryX=1;entryY=0.5;entryDx=0;entryDy=0;startArrow=classic;startFill=1;endArrow=none;endFill=0;" edge="1" parent="1" source="jJRrVX9wvgxoNWmM7mUK-25" target="jJRrVX9wvgxoNWmM7mUK-14">
          <mxGeometry relative="1" as="geometry" />
        </mxCell>
        <mxCell id="jJRrVX9wvgxoNWmM7mUK-25" value="&lt;div style=&quot;text-align: left;&quot;&gt;An internal DNS server used for resolving &lt;b&gt;Kubernetes service domain names&lt;/b&gt;&lt;br&gt;Example -&amp;gt; (myapp.default.svc.cluster.local)&lt;/div&gt;" style="text;html=1;align=center;verticalAlign=middle;resizable=0;points=[];autosize=1;strokeColor=default;fillColor=none;fontFamily=Comic Sans MS;dashed=1;" vertex="1" parent="1">
          <mxGeometry x="1490" y="465" width="460" height="40" as="geometry" />
        </mxCell>
        <mxCell id="jJRrVX9wvgxoNWmM7mUK-28" value="" style="group" vertex="1" connectable="0" parent="1">
          <mxGeometry x="675" y="40" width="1199.17" height="124" as="geometry" />
        </mxCell>
        <mxCell id="jJRrVX9wvgxoNWmM7mUK-26" value="&lt;font style=&quot;font-size: 42px;&quot; face=&quot;Comic Sans MS&quot;&gt;What are the different components of data plane?&lt;/font&gt;" style="text;html=1;align=center;verticalAlign=middle;resizable=0;points=[];autosize=1;strokeColor=none;fillColor=none;" vertex="1" parent="jJRrVX9wvgxoNWmM7mUK-28">
          <mxGeometry x="159.16999999999996" y="40" width="1020" height="60" as="geometry" />
        </mxCell>
        <mxCell id="jJRrVX9wvgxoNWmM7mUK-27" value="" style="sketch=0;aspect=fixed;html=1;points=[];align=center;image;fontSize=12;image=img/lib/mscae/Kubernetes.svg;fillStyle=solid;fontFamily=Comic Sans MS;" vertex="1" parent="jJRrVX9wvgxoNWmM7mUK-28">
          <mxGeometry width="129.17" height="124" as="geometry" />
        </mxCell>
        <mxCell id="JoC5IAg7MvYGfW2PrO3F-1" value="&lt;h1&gt;1&lt;/h1&gt;" style="whiteSpace=wrap;html=1;fontFamily=Comic Sans MS;fontSize=10;strokeColor=default;fillColor=#FF0000;fontColor=#FFFFFF;" vertex="1" parent="1">
          <mxGeometry x="759" y="215" width="31" height="30" as="geometry" />
        </mxCell>
        <mxCell id="JoC5IAg7MvYGfW2PrO3F-4" value="&lt;h1&gt;2&lt;/h1&gt;" style="whiteSpace=wrap;html=1;fontFamily=Comic Sans MS;fontSize=10;strokeColor=default;fillColor=#FF0000;fontColor=#FFFFFF;" vertex="1" parent="1">
          <mxGeometry x="1259" y="215" width="31" height="30" as="geometry" />
        </mxCell>
        <mxCell id="JoC5IAg7MvYGfW2PrO3F-5" value="&lt;h1&gt;3&lt;/h1&gt;" style="whiteSpace=wrap;html=1;fontFamily=Comic Sans MS;fontSize=10;strokeColor=default;fillColor=#FF0000;fontColor=#FFFFFF;" vertex="1" parent="1">
          <mxGeometry x="599" y="415" width="31" height="30" as="geometry" />
        </mxCell>
        <mxCell id="JoC5IAg7MvYGfW2PrO3F-6" value="&lt;h1&gt;4&lt;/h1&gt;" style="whiteSpace=wrap;html=1;fontFamily=Comic Sans MS;fontSize=10;strokeColor=default;fillColor=#FF0000;fontColor=#FFFFFF;" vertex="1" parent="1">
          <mxGeometry x="1490" y="435" width="31" height="30" as="geometry" />
        </mxCell>
        <mxCell id="JoC5IAg7MvYGfW2PrO3F-7" value="&lt;h1&gt;5&lt;/h1&gt;" style="whiteSpace=wrap;html=1;fontFamily=Comic Sans MS;fontSize=10;strokeColor=default;fillColor=#FF0000;fontColor=#FFFFFF;" vertex="1" parent="1">
          <mxGeometry x="639" y="655" width="31" height="30" as="geometry" />
        </mxCell>
        <mxCell id="JoC5IAg7MvYGfW2PrO3F-8" value="&lt;h1&gt;6&lt;/h1&gt;" style="whiteSpace=wrap;html=1;fontFamily=Comic Sans MS;fontSize=10;strokeColor=default;fillColor=#FF0000;fontColor=#FFFFFF;" vertex="1" parent="1">
          <mxGeometry x="1490" y="600" width="31" height="30" as="geometry" />
        </mxCell>
      </root>
    </mxGraphModel>
  </diagram>
  <diagram id="SbxPfKJdUK_U7GGdJQ7T" name="How K8s Resolves Ips">
    <mxGraphModel dx="914" dy="2752" grid="1" gridSize="10" guides="1" tooltips="1" connect="1" arrows="1" fold="1" page="1" pageScale="1" pageWidth="850" pageHeight="1100" math="0" shadow="0">
      <root>
        <mxCell id="0" />
        <mxCell id="1" parent="0" />
        <mxCell id="iZMe-Ucd2AGIqdvTw847-2" value="" style="rounded=0;whiteSpace=wrap;html=1;dashed=1;fontSize=10;strokeColor=#6c8ebf;fillColor=#dae8fc;sketch=1;fillStyle=cross-hatch;" parent="1" vertex="1">
          <mxGeometry x="40" y="-1040" width="760" height="700" as="geometry" />
        </mxCell>
        <mxCell id="4bZ6VNV_56yymwDryI18-1" value="&lt;h4&gt;my-nginx&lt;br&gt;(Pod)&lt;/h4&gt;" style="rounded=1;whiteSpace=wrap;html=1;shadow=0;glass=0;sketch=1;fontFamily=Comic Sans MS;strokeColor=#d79b00;fillColor=#ffe6cc;fillStyle=cross-hatch;" parent="1" vertex="1">
          <mxGeometry x="80" y="-960" width="80" height="40" as="geometry" />
        </mxCell>
        <mxCell id="4bZ6VNV_56yymwDryI18-2" value="&lt;h4&gt;core-dns&lt;/h4&gt;" style="rounded=1;whiteSpace=wrap;html=1;shadow=0;glass=0;sketch=1;fontFamily=Comic Sans MS;strokeColor=#d79b00;fillColor=#ffe6cc;fillStyle=cross-hatch;" parent="1" vertex="1">
          <mxGeometry x="360" y="-960" width="80" height="40" as="geometry" />
        </mxCell>
        <mxCell id="4bZ6VNV_56yymwDryI18-4" value="&lt;h4&gt;IP Tables&lt;br&gt;(OS)&lt;/h4&gt;" style="rounded=1;whiteSpace=wrap;html=1;shadow=0;glass=0;sketch=1;fontFamily=Comic Sans MS;strokeColor=#d79b00;fillColor=#ffe6cc;fillStyle=cross-hatch;" parent="1" vertex="1">
          <mxGeometry x="520" y="-960" width="80" height="40" as="geometry" />
        </mxCell>
        <mxCell id="4bZ6VNV_56yymwDryI18-5" value="&lt;h4&gt;my-app&lt;br&gt;(Pod)&lt;/h4&gt;" style="rounded=1;whiteSpace=wrap;html=1;shadow=0;glass=0;sketch=1;fontFamily=Comic Sans MS;strokeColor=#d79b00;fillColor=#ffe6cc;fillStyle=cross-hatch;" parent="1" vertex="1">
          <mxGeometry x="680" y="-960" width="80" height="40" as="geometry" />
        </mxCell>
        <mxCell id="4bZ6VNV_56yymwDryI18-6" value="&lt;h4&gt;my-nginx&lt;br&gt;(Service)&lt;/h4&gt;" style="rounded=1;whiteSpace=wrap;html=1;shadow=0;glass=0;sketch=1;fontFamily=Comic Sans MS;strokeColor=#d79b00;fillColor=#ffe6cc;fillStyle=cross-hatch;" parent="1" vertex="1">
          <mxGeometry x="204" y="-250" width="80" height="40" as="geometry" />
        </mxCell>
        <mxCell id="4bZ6VNV_56yymwDryI18-7" value="&lt;span style=&quot;font-family: &amp;quot;Comic Sans MS&amp;quot;; text-align: left;&quot;&gt;&lt;font style=&quot;font-size: 10px;&quot;&gt;Cluster IP: 10.78.9.3&lt;/font&gt;&lt;/span&gt;" style="text;html=1;align=center;verticalAlign=middle;resizable=0;points=[];autosize=1;strokeColor=none;fillColor=none;" parent="1" vertex="1">
          <mxGeometry x="184" y="-280" width="120" height="30" as="geometry" />
        </mxCell>
        <mxCell id="e5Ggf4KuEvgSH4PyXK04-3" value="" style="endArrow=none;html=1;rounded=0;fontSize=10;dashed=1;" parent="1" target="iZMe-Ucd2AGIqdvTw847-44" edge="1">
          <mxGeometry width="50" height="50" relative="1" as="geometry">
            <mxPoint x="119.55" y="-920" as="sourcePoint" />
            <mxPoint x="120" y="-520" as="targetPoint" />
          </mxGeometry>
        </mxCell>
        <mxCell id="e5Ggf4KuEvgSH4PyXK04-8" value="" style="endArrow=none;html=1;rounded=0;fontSize=10;dashed=1;entryX=0.5;entryY=0;entryDx=0;entryDy=0;startArrow=none;" parent="1" source="iZMe-Ucd2AGIqdvTw847-34" target="iZMe-Ucd2AGIqdvTw847-43" edge="1">
          <mxGeometry width="50" height="50" relative="1" as="geometry">
            <mxPoint x="399.56999999999994" y="-920" as="sourcePoint" />
            <mxPoint x="400" y="-790" as="targetPoint" />
          </mxGeometry>
        </mxCell>
        <mxCell id="e5Ggf4KuEvgSH4PyXK04-11" value="&lt;font style=&quot;font-size: 10px;&quot; face=&quot;Comic Sans MS&quot;&gt;Response: 10.43.5.6&lt;/font&gt;" style="html=1;verticalAlign=bottom;endArrow=block;labelBackgroundColor=none;fontFamily=Verdana;fontSize=12;edgeStyle=elbowEdgeStyle;elbow=vertical;entryX=1.138;entryY=0.395;entryDx=0;entryDy=0;entryPerimeter=0;" parent="1" edge="1">
          <mxGeometry relative="1" as="geometry">
            <mxPoint x="399.5" y="-720.8400000000001" as="sourcePoint" />
            <mxPoint x="125.37999999999988" y="-721.3" as="targetPoint" />
          </mxGeometry>
        </mxCell>
        <mxCell id="e5Ggf4KuEvgSH4PyXK04-12" value="&lt;font style=&quot;font-size: 10px;&quot; face=&quot;Comic Sans MS&quot;&gt;http://10.43.5.6/v1&lt;/font&gt;" style="html=1;verticalAlign=bottom;endArrow=block;labelBackgroundColor=none;fontFamily=Verdana;fontSize=12;edgeStyle=elbowEdgeStyle;elbow=vertical;" parent="1" edge="1">
          <mxGeometry x="-0.0599" y="-1" relative="1" as="geometry">
            <mxPoint x="126" y="-641.0000000000001" as="sourcePoint" />
            <mxPoint x="560" y="-640" as="targetPoint" />
            <mxPoint as="offset" />
          </mxGeometry>
        </mxCell>
        <mxCell id="e5Ggf4KuEvgSH4PyXK04-17" value="&lt;span style=&quot;font-family: &amp;quot;Comic Sans MS&amp;quot;; text-align: left;&quot;&gt;&lt;font style=&quot;font-size: 10px;&quot;&gt;Static Address: 10.15.9.3:53&lt;/font&gt;&lt;/span&gt;" style="text;html=1;align=center;verticalAlign=middle;resizable=0;points=[];autosize=1;strokeColor=none;fillColor=none;" parent="1" vertex="1">
          <mxGeometry x="320" y="-990" width="160" height="30" as="geometry" />
        </mxCell>
        <mxCell id="e5Ggf4KuEvgSH4PyXK04-18" value="&lt;span style=&quot;font-family: &amp;quot;Comic Sans MS&amp;quot;; text-align: left;&quot;&gt;&lt;font style=&quot;font-size: 10px;&quot;&gt;Resolve Domain&lt;br&gt;my-app.default.svc.cluster.local&lt;br&gt;&lt;/font&gt;&lt;/span&gt;" style="text;html=1;align=center;verticalAlign=middle;resizable=0;points=[];autosize=1;strokeColor=default;fillColor=none;dashed=1;" parent="1" vertex="1">
          <mxGeometry x="170" y="-810" width="170" height="40" as="geometry" />
        </mxCell>
        <mxCell id="oDmz7fBB2IAYYHJtUHJX-1" value="&lt;span style=&quot;font-family: &amp;quot;Comic Sans MS&amp;quot;; text-align: left;&quot;&gt;&lt;font style=&quot;font-size: 10px;&quot;&gt;Returns cluster IP of the service&lt;br&gt;&lt;/font&gt;&lt;/span&gt;" style="text;html=1;align=center;verticalAlign=middle;resizable=0;points=[];autosize=1;strokeColor=default;fillColor=none;dashed=1;" parent="1" vertex="1">
          <mxGeometry x="170" y="-711" width="180" height="30" as="geometry" />
        </mxCell>
        <mxCell id="oDmz7fBB2IAYYHJtUHJX-2" value="" style="html=1;verticalAlign=bottom;endArrow=block;labelBackgroundColor=none;fontFamily=Verdana;fontSize=12;edgeStyle=elbowEdgeStyle;elbow=vertical;" parent="1" edge="1">
          <mxGeometry relative="1" as="geometry">
            <mxPoint x="715" y="-449.6700000000001" as="sourcePoint" />
            <mxPoint x="120" y="-450" as="targetPoint" />
          </mxGeometry>
        </mxCell>
        <mxCell id="-ALNNLXDJSgSj4Xgmy_k-3" value="HTTP Response&amp;nbsp;" style="edgeLabel;align=center;verticalAlign=middle;resizable=0;points=[];fontSize=10;fontFamily=Comic Sans MS;fontColor=#000000;html=1;labelBackgroundColor=none;" parent="oDmz7fBB2IAYYHJtUHJX-2" vertex="1" connectable="0">
          <mxGeometry x="0.2231" y="1" relative="1" as="geometry">
            <mxPoint x="-2" y="-11" as="offset" />
          </mxGeometry>
        </mxCell>
        <mxCell id="oDmz7fBB2IAYYHJtUHJX-3" value="&lt;span style=&quot;font-family: &amp;quot;Comic Sans MS&amp;quot;; text-align: left;&quot;&gt;&lt;font style=&quot;font-size: 10px;&quot;&gt;Temp Address: 10.0.0.1&lt;/font&gt;&lt;/span&gt;" style="text;html=1;align=center;verticalAlign=middle;resizable=0;points=[];autosize=1;strokeColor=none;fillColor=none;" parent="1" vertex="1">
          <mxGeometry x="655" y="-990" width="130" height="30" as="geometry" />
        </mxCell>
        <mxCell id="iZMe-Ucd2AGIqdvTw847-1" value="&lt;h2&gt;Worker Node 1&lt;/h2&gt;" style="text;html=1;align=center;verticalAlign=middle;resizable=0;points=[];autosize=1;strokeColor=none;fillColor=none;fontFamily=Comic Sans MS;" parent="1" vertex="1">
          <mxGeometry x="320" y="-340" width="160" height="60" as="geometry" />
        </mxCell>
        <mxCell id="iZMe-Ucd2AGIqdvTw847-8" value="" style="group" parent="1" vertex="1" connectable="0">
          <mxGeometry x="500" y="-1014" width="148" height="54" as="geometry" />
        </mxCell>
        <mxCell id="iZMe-Ucd2AGIqdvTw847-4" value="&lt;span style=&quot;font-family: &amp;quot;Comic Sans MS&amp;quot;; text-align: left;&quot;&gt;&lt;font style=&quot;font-size: 10px;&quot;&gt;10.1.0.0&lt;/font&gt;&lt;/span&gt;" style="text;html=1;align=center;verticalAlign=middle;resizable=0;points=[];autosize=1;strokeColor=none;fillColor=none;" parent="iZMe-Ucd2AGIqdvTw847-8" vertex="1">
          <mxGeometry y="14" width="60" height="30" as="geometry" />
        </mxCell>
        <mxCell id="iZMe-Ucd2AGIqdvTw847-5" value="&lt;span style=&quot;font-family: &amp;quot;Comic Sans MS&amp;quot;; text-align: left;&quot;&gt;&lt;font style=&quot;font-size: 30px;&quot;&gt;{&lt;/font&gt;&lt;/span&gt;" style="text;html=1;align=center;verticalAlign=middle;resizable=0;points=[];autosize=1;strokeColor=none;fillColor=none;" parent="iZMe-Ucd2AGIqdvTw847-8" vertex="1">
          <mxGeometry x="48" width="30" height="50" as="geometry" />
        </mxCell>
        <mxCell id="iZMe-Ucd2AGIqdvTw847-6" value="&lt;span style=&quot;font-family: &amp;quot;Comic Sans MS&amp;quot;; text-align: left;&quot;&gt;&lt;font style=&quot;font-size: 10px;&quot;&gt;10.0.0.1&lt;/font&gt;&lt;/span&gt;" style="text;html=1;align=center;verticalAlign=middle;resizable=0;points=[];autosize=1;strokeColor=none;fillColor=none;" parent="iZMe-Ucd2AGIqdvTw847-8" vertex="1">
          <mxGeometry x="63" y="1" width="60" height="30" as="geometry" />
        </mxCell>
        <mxCell id="iZMe-Ucd2AGIqdvTw847-7" value="&lt;span style=&quot;font-family: &amp;quot;Comic Sans MS&amp;quot;; text-align: left;&quot;&gt;&lt;font style=&quot;font-size: 10px;&quot;&gt;10.0.1.1&lt;/font&gt;&lt;/span&gt;" style="text;html=1;align=center;verticalAlign=middle;resizable=0;points=[];autosize=1;strokeColor=none;fillColor=none;" parent="iZMe-Ucd2AGIqdvTw847-8" vertex="1">
          <mxGeometry x="63" y="24" width="60" height="30" as="geometry" />
        </mxCell>
        <mxCell id="iZMe-Ucd2AGIqdvTw847-13" value="" style="endArrow=none;html=1;rounded=0;fontSize=10;dashed=1;entryX=0.5;entryY=0;entryDx=0;entryDy=0;" parent="1" target="iZMe-Ucd2AGIqdvTw847-41" edge="1">
          <mxGeometry width="50" height="50" relative="1" as="geometry">
            <mxPoint x="720" y="-920" as="sourcePoint" />
            <mxPoint x="720.45" y="-520" as="targetPoint" />
          </mxGeometry>
        </mxCell>
        <mxCell id="iZMe-Ucd2AGIqdvTw847-17" value="&lt;span style=&quot;font-family: &amp;quot;Comic Sans MS&amp;quot;; text-align: left;&quot;&gt;&lt;font style=&quot;font-size: 10px;&quot;&gt;Maps static IP addresses with &lt;br&gt;temporary IP addresses of pods&lt;br&gt;for routing purposes&lt;br&gt;&lt;/font&gt;&lt;/span&gt;" style="text;html=1;align=center;verticalAlign=middle;resizable=0;points=[];autosize=1;strokeColor=none;fillColor=none;" parent="1" vertex="1">
          <mxGeometry x="315" y="-270" width="170" height="60" as="geometry" />
        </mxCell>
        <mxCell id="iZMe-Ucd2AGIqdvTw847-29" value="" style="endArrow=none;html=1;rounded=0;fontSize=10;dashed=1;entryX=0.5;entryY=0;entryDx=0;entryDy=0;" parent="1" target="iZMe-Ucd2AGIqdvTw847-42" edge="1">
          <mxGeometry width="50" height="50" relative="1" as="geometry">
            <mxPoint x="559.44" y="-919.9999999999999" as="sourcePoint" />
            <mxPoint x="559.8900000000001" y="-520" as="targetPoint" />
          </mxGeometry>
        </mxCell>
        <mxCell id="iZMe-Ucd2AGIqdvTw847-33" value="" style="html=1;points=[];perimeter=orthogonalPerimeter;rounded=0;shadow=0;comic=0;labelBackgroundColor=none;strokeWidth=1;fontFamily=Verdana;fontSize=12;align=center;" parent="1" vertex="1">
          <mxGeometry x="555" y="-640" width="10" height="80" as="geometry" />
        </mxCell>
        <mxCell id="iZMe-Ucd2AGIqdvTw847-35" value="" style="endArrow=none;html=1;rounded=0;fontSize=10;dashed=1;entryX=0.474;entryY=0.804;entryDx=0;entryDy=0;entryPerimeter=0;" parent="1" target="iZMe-Ucd2AGIqdvTw847-34" edge="1">
          <mxGeometry width="50" height="50" relative="1" as="geometry">
            <mxPoint x="399.56999999999994" y="-920" as="sourcePoint" />
            <mxPoint x="400.24" y="-589.7600000000001" as="targetPoint" />
          </mxGeometry>
        </mxCell>
        <mxCell id="e5Ggf4KuEvgSH4PyXK04-4" value="&lt;span style=&quot;font-family: &amp;quot;Comic Sans MS&amp;quot;; font-size: 10px; text-align: left;&quot;&gt;DNS Query: 10.15.9.3:53&lt;/span&gt;" style="html=1;verticalAlign=bottom;endArrow=block;labelBackgroundColor=none;fontFamily=Verdana;fontSize=12;edgeStyle=elbowEdgeStyle;elbow=vertical;exitX=0.6;exitY=0.244;exitDx=0;exitDy=0;exitPerimeter=0;" parent="1" edge="1">
          <mxGeometry relative="1" as="geometry">
            <mxPoint x="120" y="-819.56" as="sourcePoint" />
            <mxPoint x="400" y="-820" as="targetPoint" />
          </mxGeometry>
        </mxCell>
        <mxCell id="iZMe-Ucd2AGIqdvTw847-34" value="" style="html=1;points=[];perimeter=orthogonalPerimeter;rounded=0;shadow=0;comic=0;labelBackgroundColor=none;strokeWidth=1;fontFamily=Verdana;fontSize=12;align=center;" parent="1" vertex="1">
          <mxGeometry x="395" y="-820" width="10" height="100" as="geometry" />
        </mxCell>
        <mxCell id="iZMe-Ucd2AGIqdvTw847-30" value="" style="group;rotation=90;" parent="1" vertex="1" connectable="0">
          <mxGeometry x="560" y="-630" width="65" height="30" as="geometry" />
        </mxCell>
        <mxCell id="iZMe-Ucd2AGIqdvTw847-31" value="" style="html=1;points=[];perimeter=orthogonalPerimeter;rounded=0;shadow=0;comic=0;labelBackgroundColor=none;strokeWidth=1;fontFamily=Verdana;fontSize=12;align=center;" parent="iZMe-Ucd2AGIqdvTw847-30" vertex="1">
          <mxGeometry width="10" height="30" as="geometry" />
        </mxCell>
        <mxCell id="iZMe-Ucd2AGIqdvTw847-32" value="&lt;span style=&quot;font-family: &amp;quot;Comic Sans MS&amp;quot;; font-size: 10px;&quot;&gt;Process Routing Logic&lt;/span&gt;" style="html=1;verticalAlign=bottom;endArrow=block;labelBackgroundColor=none;fontFamily=Verdana;fontSize=12;elbow=vertical;edgeStyle=orthogonalEdgeStyle;curved=1;entryX=1;entryY=0.933;entryPerimeter=0;exitX=1.038;exitY=0.345;exitPerimeter=0;entryDx=0;entryDy=0;" parent="iZMe-Ucd2AGIqdvTw847-30" edge="1">
          <mxGeometry x="-0.2029" y="-10" relative="1" as="geometry">
            <mxPoint x="10" y="0.029999999999972715" as="sourcePoint" />
            <mxPoint x="10.000000000000227" y="27.99000000000001" as="targetPoint" />
            <Array as="points">
              <mxPoint x="65" />
              <mxPoint x="65" y="28" />
            </Array>
            <mxPoint x="1" y="-20" as="offset" />
          </mxGeometry>
        </mxCell>
        <mxCell id="iZMe-Ucd2AGIqdvTw847-37" value="&lt;span style=&quot;font-family: &amp;quot;Comic Sans MS&amp;quot;; text-align: left;&quot;&gt;&lt;font style=&quot;font-size: 10px;&quot;&gt;Temp Address: 10.0.0.2&lt;/font&gt;&lt;/span&gt;" style="text;html=1;align=center;verticalAlign=middle;resizable=0;points=[];autosize=1;strokeColor=none;fillColor=none;" parent="1" vertex="1">
          <mxGeometry x="54" y="-990" width="130" height="30" as="geometry" />
        </mxCell>
        <mxCell id="iZMe-Ucd2AGIqdvTw847-40" style="edgeStyle=orthogonalEdgeStyle;rounded=0;orthogonalLoop=1;jettySize=auto;html=1;exitX=0.5;exitY=1;exitDx=0;exitDy=0;entryX=0.211;entryY=0.02;entryDx=0;entryDy=0;entryPerimeter=0;fontFamily=Comic Sans MS;fontSize=10;" parent="1" source="iZMe-Ucd2AGIqdvTw847-28" target="iZMe-Ucd2AGIqdvTw847-38" edge="1">
          <mxGeometry relative="1" as="geometry">
            <Array as="points">
              <mxPoint x="660" y="-518" />
            </Array>
          </mxGeometry>
        </mxCell>
        <mxCell id="-ALNNLXDJSgSj4Xgmy_k-2" value="&lt;font color=&quot;#000000&quot;&gt;Yes&lt;/font&gt;" style="edgeLabel;html=1;align=center;verticalAlign=middle;resizable=0;points=[];fontSize=10;fontFamily=Comic Sans MS;fontColor=#FFFFFF;labelBackgroundColor=none;" parent="iZMe-Ucd2AGIqdvTw847-40" vertex="1" connectable="0">
          <mxGeometry x="-0.1829" relative="1" as="geometry">
            <mxPoint x="-27" y="-11" as="offset" />
          </mxGeometry>
        </mxCell>
        <mxCell id="mp-UsFM7ttxtWTVMHW3v-1" style="edgeStyle=orthogonalEdgeStyle;rounded=0;orthogonalLoop=1;jettySize=auto;html=1;" edge="1" parent="1" source="iZMe-Ucd2AGIqdvTw847-28">
          <mxGeometry relative="1" as="geometry">
            <mxPoint x="820" y="-559" as="targetPoint" />
          </mxGeometry>
        </mxCell>
        <mxCell id="iZMe-Ucd2AGIqdvTw847-28" value="&lt;font face=&quot;Comic Sans MS&quot;&gt;&lt;br&gt;Does IP exists&lt;br&gt;on node?&lt;/font&gt;" style="rhombus;whiteSpace=wrap;html=1;fontSize=10;strokeColor=default;sketch=1;" parent="1" vertex="1">
          <mxGeometry x="525" y="-599" width="80" height="80" as="geometry" />
        </mxCell>
        <mxCell id="iZMe-Ucd2AGIqdvTw847-38" value="" style="html=1;points=[];perimeter=orthogonalPerimeter;rounded=0;shadow=0;comic=0;labelBackgroundColor=none;strokeWidth=1;fontFamily=Verdana;fontSize=12;align=center;" parent="1" vertex="1">
          <mxGeometry x="715" y="-520" width="10" height="71" as="geometry" />
        </mxCell>
        <mxCell id="iZMe-Ucd2AGIqdvTw847-41" value="&lt;h4&gt;my-app&lt;br&gt;(Pod)&lt;/h4&gt;" style="rounded=1;whiteSpace=wrap;html=1;shadow=0;glass=0;sketch=1;fontFamily=Comic Sans MS;strokeColor=#d79b00;fillColor=#ffe6cc;fillStyle=cross-hatch;" parent="1" vertex="1">
          <mxGeometry x="680" y="-420" width="80" height="40" as="geometry" />
        </mxCell>
        <mxCell id="iZMe-Ucd2AGIqdvTw847-42" value="&lt;h4&gt;IP Tables&lt;br&gt;(OS)&lt;/h4&gt;" style="rounded=1;whiteSpace=wrap;html=1;shadow=0;glass=0;sketch=1;fontFamily=Comic Sans MS;strokeColor=#d79b00;fillColor=#ffe6cc;fillStyle=cross-hatch;" parent="1" vertex="1">
          <mxGeometry x="520" y="-420" width="80" height="40" as="geometry" />
        </mxCell>
        <mxCell id="iZMe-Ucd2AGIqdvTw847-43" value="&lt;h4&gt;core-dns&lt;/h4&gt;" style="rounded=1;whiteSpace=wrap;html=1;shadow=0;glass=0;sketch=1;fontFamily=Comic Sans MS;strokeColor=#d79b00;fillColor=#ffe6cc;fillStyle=cross-hatch;" parent="1" vertex="1">
          <mxGeometry x="360" y="-420" width="80" height="40" as="geometry" />
        </mxCell>
        <mxCell id="iZMe-Ucd2AGIqdvTw847-44" value="&lt;h4&gt;my-nginx&lt;br&gt;(Pod)&lt;/h4&gt;" style="rounded=1;whiteSpace=wrap;html=1;shadow=0;glass=0;sketch=1;fontFamily=Comic Sans MS;strokeColor=#d79b00;fillColor=#ffe6cc;fillStyle=cross-hatch;" parent="1" vertex="1">
          <mxGeometry x="79" y="-420" width="80" height="40" as="geometry" />
        </mxCell>
        <mxCell id="iZMe-Ucd2AGIqdvTw847-45" value="&lt;h1&gt;1&lt;/h1&gt;" style="whiteSpace=wrap;html=1;fontFamily=Comic Sans MS;fontSize=10;strokeColor=default;fillColor=#FF0000;fontColor=#FFFFFF;" parent="1" vertex="1">
          <mxGeometry x="70" y="-900" width="31" height="30" as="geometry" />
        </mxCell>
        <mxCell id="-ALNNLXDJSgSj4Xgmy_k-1" value="&lt;h1&gt;How domain names are resolved in Kubernetes cluster?&lt;/h1&gt;" style="text;html=1;align=center;verticalAlign=middle;resizable=0;points=[];autosize=1;strokeColor=none;fillColor=none;fontFamily=Comic Sans MS;" parent="1" vertex="1">
          <mxGeometry x="90" y="-1110" width="670" height="70" as="geometry" />
        </mxCell>
        <mxCell id="e5Ggf4KuEvgSH4PyXK04-1" value="" style="html=1;points=[];perimeter=orthogonalPerimeter;rounded=0;shadow=0;comic=0;labelBackgroundColor=none;strokeWidth=1;fontFamily=Verdana;fontSize=12;align=center;" parent="1" vertex="1">
          <mxGeometry x="114" y="-880" width="10" height="430" as="geometry" />
        </mxCell>
        <mxCell id="iZMe-Ucd2AGIqdvTw847-22" value="" style="group" parent="1" vertex="1" connectable="0">
          <mxGeometry x="119" y="-875" width="65" height="30" as="geometry" />
        </mxCell>
        <mxCell id="iZMe-Ucd2AGIqdvTw847-18" value="" style="html=1;points=[];perimeter=orthogonalPerimeter;rounded=0;shadow=0;comic=0;labelBackgroundColor=none;strokeWidth=1;fontFamily=Verdana;fontSize=12;align=center;" parent="iZMe-Ucd2AGIqdvTw847-22" vertex="1">
          <mxGeometry width="10" height="30" as="geometry" />
        </mxCell>
        <mxCell id="iZMe-Ucd2AGIqdvTw847-19" value="&lt;font style=&quot;font-size: 10px;&quot; face=&quot;Comic Sans MS&quot;&gt;http://my-app.default.svc.cluster.local&lt;/font&gt;" style="html=1;verticalAlign=bottom;endArrow=block;labelBackgroundColor=none;fontFamily=Verdana;fontSize=12;elbow=vertical;edgeStyle=orthogonalEdgeStyle;curved=1;entryX=1;entryY=0.933;entryPerimeter=0;exitX=1.038;exitY=0.345;exitPerimeter=0;entryDx=0;entryDy=0;" parent="iZMe-Ucd2AGIqdvTw847-22" target="iZMe-Ucd2AGIqdvTw847-18" edge="1">
          <mxGeometry x="-0.2028" y="45" relative="1" as="geometry">
            <mxPoint x="10" y="0.029999999999972715" as="sourcePoint" />
            <mxPoint x="14.620000000000005" y="37.94999999999982" as="targetPoint" />
            <Array as="points">
              <mxPoint x="65" />
              <mxPoint x="65" y="28" />
            </Array>
            <mxPoint as="offset" />
          </mxGeometry>
        </mxCell>
        <mxCell id="mp-UsFM7ttxtWTVMHW3v-2" value="&lt;font color=&quot;#000000&quot;&gt;No&lt;/font&gt;" style="edgeLabel;html=1;align=center;verticalAlign=middle;resizable=0;points=[];fontSize=10;fontFamily=Comic Sans MS;fontColor=#FFFFFF;labelBackgroundColor=none;" vertex="1" connectable="0" parent="1">
          <mxGeometry x="619.9952620992723" y="-569.9985330018283" as="geometry" />
        </mxCell>
        <mxCell id="mp-UsFM7ttxtWTVMHW3v-3" value="&lt;span style=&quot;font-family: &amp;quot;Comic Sans MS&amp;quot;; text-align: left;&quot;&gt;&lt;font style=&quot;font-size: 10px;&quot;&gt;&lt;b&gt;Goes To Other Worker Node&lt;/b&gt;&lt;br&gt;&lt;/font&gt;&lt;/span&gt;" style="text;html=1;align=center;verticalAlign=middle;resizable=0;points=[];autosize=1;strokeColor=none;fillColor=none;" vertex="1" parent="1">
          <mxGeometry x="643" y="-585" width="170" height="30" as="geometry" />
        </mxCell>
        <mxCell id="mp-UsFM7ttxtWTVMHW3v-4" value="&lt;h1&gt;2&lt;/h1&gt;" style="whiteSpace=wrap;html=1;fontFamily=Comic Sans MS;fontSize=10;strokeColor=default;fillColor=#FF0000;fontColor=#FFFFFF;" vertex="1" parent="1">
          <mxGeometry x="124" y="-820" width="31" height="30" as="geometry" />
        </mxCell>
        <mxCell id="mp-UsFM7ttxtWTVMHW3v-5" value="&lt;h1&gt;3&lt;/h1&gt;" style="whiteSpace=wrap;html=1;fontFamily=Comic Sans MS;fontSize=10;strokeColor=default;fillColor=#FF0000;fontColor=#FFFFFF;" vertex="1" parent="1">
          <mxGeometry x="124" y="-640" width="31" height="30" as="geometry" />
        </mxCell>
      </root>
    </mxGraphModel>
  </diagram>
</mxfile>
